<svg width="303" height="296" viewBox="0 0 303 296" fill="none" xmlns="http://www.w3.org/2000/svg">
<g opacity="0.15">
<mask id="mask0_56_2463" style="mask-type:luminance" maskUnits="userSpaceOnUse" x="0" y="0" width="303" height="296">
<path d="M201.565 0.753906L302.355 0.865279L101.888 295.997L0.429688 295.942L201.565 0.753906Z" fill="white"/>
</mask>
<g mask="url(#mask0_56_2463)">
<path d="M28.0454 314.766L229.181 19.5785L173.941 -18.0647L-27.1944 277.123L28.0454 314.766ZM101.884 262.589H0.425491V329.356H101.884V262.589ZM274.731 -17.8977L74.2642 277.234L129.56 314.766L330.027 19.6342L274.731 -17.8977ZM201.561 34.1681L302.351 34.2795V-32.5429L201.617 -32.6543V34.1681H201.561ZM0.425491 295.945L-27.1944 277.123L-62.7773 329.3H0.369835V295.945H0.425491ZM101.884 296V329.412H119.592L129.56 314.766L101.94 296H101.884ZM302.351 0.868267L329.971 19.6342L365.387 -32.4872H302.351V0.868267ZM201.561 0.756893V-32.6543H183.909L173.941 -18.0647L201.561 0.756893Z" fill="white"/>
</g>
<path d="M238.312 296C273.679 296 302.35 267.329 302.35 231.962C302.35 196.595 273.679 167.924 238.312 167.924C202.944 167.924 174.273 196.595 174.273 231.962C174.273 267.329 202.944 296 238.312 296Z" fill="white"/>
<mask id="mask1_56_2463" style="mask-type:luminance" maskUnits="userSpaceOnUse" x="1" y="0" width="129" height="129">
<path d="M65.6866 128.94C101.054 128.94 129.725 100.269 129.725 64.9014C129.725 29.5341 101.054 0.863281 65.6866 0.863281C30.3193 0.863281 1.64844 29.5341 1.64844 64.9014C1.64844 100.269 30.3193 128.94 65.6866 128.94Z" fill="white"/>
</mask>
<g mask="url(#mask1_56_2463)">
<path d="M65.6876 34.2775C82.6159 34.2775 96.3145 47.9761 96.3145 64.9044H163.137C163.137 11.1124 119.48 -32.5449 65.6876 -32.5449V34.2775ZM35.0607 64.9044C35.0607 47.9761 48.7593 34.2775 65.6876 34.2775V-32.5449C11.8956 -32.5449 -31.7617 11.1124 -31.7617 64.9044H35.0607ZM65.6876 95.5313C48.7593 95.5313 35.0607 81.8327 35.0607 64.9044H-31.7617C-31.7617 118.696 11.8956 162.354 65.6876 162.354V95.5313ZM96.3145 64.9044C96.3145 81.8327 82.6159 95.5313 65.6876 95.5313V162.354C119.48 162.354 163.137 118.696 163.137 64.9044H96.3145Z" fill="white"/>
</g>
</g>
</svg>
