<svg width="627" height="613" viewBox="0 0 627 613" fill="none" xmlns="http://www.w3.org/2000/svg">
<mask id="mask0_82_2301" style="mask-type:luminance" maskUnits="userSpaceOnUse" x="0" y="0" width="627" height="613">
<path d="M417.493 0L626.703 0.231148L210.596 612.76L0 612.644L417.493 0Z" fill="white"/>
</mask>
<g mask="url(#mask0_82_2301)">
<path d="M57.3319 651.707L474.825 39.0632L360.165 -39.063L-57.3285 573.581L57.3319 651.707ZM210.598 543.417H0.00157972V681.987H210.598V543.417ZM569.374 -38.7163L153.267 573.812L268.043 651.707L684.15 39.1788L569.374 -38.7163ZM417.495 69.3429L626.704 69.5741V-69.1116L417.611 -69.3428V69.3429H417.495ZM0.00157972 612.644L-57.3285 573.581L-131.188 681.872H-0.113942V612.644H0.00157972ZM210.598 612.76V682.103H247.354L268.043 651.707L210.713 612.76H210.598ZM626.704 0.231234L684.034 39.1788L757.546 -68.9961H626.704V0.231234ZM417.495 8.58307e-05V-69.3428H380.854L360.165 -39.063L417.495 8.58307e-05Z" fill="white"/>
</g>
<path d="M493.782 612.76C567.194 612.76 626.705 553.255 626.705 479.852C626.705 406.45 567.194 346.945 493.782 346.945C420.371 346.945 360.859 406.45 360.859 479.852C360.859 553.255 420.371 612.76 493.782 612.76Z" fill="white"/>
<mask id="mask1_82_2301" style="mask-type:luminance" maskUnits="userSpaceOnUse" x="2" y="0" width="267" height="267">
<path d="M135.466 266.046C208.877 266.046 268.389 206.541 268.389 133.139C268.389 59.736 208.877 0.231445 135.466 0.231445C62.0546 0.231445 2.54297 59.736 2.54297 133.139C2.54297 206.541 62.0546 266.046 135.466 266.046Z" fill="white"/>
</mask>
<g mask="url(#mask1_82_2301)">
<path d="M135.465 69.5744C170.603 69.5744 199.037 98.005 199.037 133.139H337.739C337.739 21.4967 247.121 -69.1113 135.465 -69.1113V69.5744ZM71.8935 133.139C71.8935 98.005 100.327 69.5744 135.465 69.5744V-69.1113C23.8101 -69.1113 -66.8086 21.4967 -66.8086 133.139H71.8935ZM135.465 196.703C100.327 196.703 71.8935 168.272 71.8935 133.139H-66.8086C-66.8086 244.781 23.8101 335.389 135.465 335.389V196.703ZM199.037 133.139C199.037 168.272 170.603 196.703 135.465 196.703V335.389C247.121 335.389 337.739 244.781 337.739 133.139H199.037Z" fill="white"/>
</g>
</svg>
