<svg width="2173" height="809" viewBox="0 0 2173 809" fill="none" xmlns="http://www.w3.org/2000/svg">
<g clip-path="url(#clip0_81_65)">
<path d="M728.187 0H589.484V809H728.187V0Z" fill="white"/>
<path fill-rule="evenodd" clip-rule="evenodd" d="M0 173.357C0 77.664 77.6732 0 173.378 0H462.34V127.129H219.612C174.88 127.129 138.702 163.302 138.702 208.029V288.929H462.34V404.5H138.702V809H0V173.357Z" fill="white"/>
<mask id="mask0_81_65" style="mask-type:luminance" maskUnits="userSpaceOnUse" x="1546" y="196" width="627" height="613">
<path d="M1963.79 196.24L2173 196.471L1756.89 809L1546.3 808.884L1963.79 196.24Z" fill="white"/>
</mask>
<g mask="url(#mask0_81_65)">
<path d="M1603.63 847.948L2021.12 235.303L1906.46 157.177L1488.97 769.821L1603.63 847.948ZM1756.89 739.657H1546.3V878.227H1756.89V739.657ZM2115.67 157.524L1699.56 770.052L1814.34 847.948L2230.45 235.419L2115.67 157.524ZM1963.79 265.583L2173 265.814V127.129L1963.91 126.897V265.583H1963.79ZM1546.3 808.884L1488.97 769.821L1415.11 878.112H1546.18V808.884H1546.3ZM1756.89 809V878.343H1793.65L1814.34 847.948L1757.01 809H1756.89ZM2173 196.471L2230.33 235.419L2303.84 127.244H2173V196.471ZM1963.79 196.24V126.897H1927.15L1906.46 157.177L1963.79 196.24Z" fill="white"/>
</g>
<path d="M2040.08 809C2113.49 809 2173 749.495 2173 676.093C2173 602.69 2113.49 543.186 2040.08 543.186C1966.67 543.186 1907.16 602.69 1907.16 676.093C1907.16 749.495 1966.67 809 2040.08 809Z" fill="white"/>
<mask id="mask1_81_65" style="mask-type:luminance" maskUnits="userSpaceOnUse" x="1548" y="196" width="267" height="267">
<path d="M1681.76 462.285C1755.17 462.285 1814.69 402.781 1814.69 329.378C1814.69 255.976 1755.17 196.471 1681.76 196.471C1608.35 196.471 1548.84 255.976 1548.84 329.378C1548.84 402.781 1608.35 462.285 1681.76 462.285Z" fill="white"/>
</mask>
<g mask="url(#mask1_81_65)">
<path d="M1681.76 265.814C1716.9 265.814 1745.33 294.245 1745.33 329.378H1884.04C1884.04 217.736 1793.42 127.128 1681.76 127.128V265.814ZM1618.19 329.378C1618.19 294.245 1646.62 265.814 1681.76 265.814V127.128C1570.11 127.128 1479.49 217.736 1479.49 329.378H1618.19ZM1681.76 392.943C1646.62 392.943 1618.19 364.512 1618.19 329.378H1479.49C1479.49 441.02 1570.11 531.628 1681.76 531.628V392.943ZM1745.33 329.378C1745.33 364.512 1716.9 392.943 1681.76 392.943V531.628C1793.42 531.628 1884.04 441.02 1884.04 329.378H1745.33Z" fill="white"/>
</g>
<path fill-rule="evenodd" clip-rule="evenodd" d="M1297.21 624.085C1262.19 666.385 1209.37 693.428 1150.07 693.428C1044.77 693.428 959.355 608.021 959.355 502.735C959.355 397.45 1044.77 312.043 1150.07 312.043C1255.37 312.043 1340.79 397.45 1340.79 502.735C1340.79 520.765 1338.24 538.216 1333.62 554.743H1451.98C1454.87 537.869 1456.37 520.418 1456.37 502.735C1456.37 333.539 1319.29 196.471 1150.07 196.471C980.853 196.471 843.77 333.539 843.77 502.735C843.77 671.932 980.853 809 1150.07 809C1276.17 809 1384.36 732.838 1431.4 624.085H1297.21Z" fill="white"/>
<path d="M1444.81 439.171H924.68V554.743H1444.81V439.171Z" fill="white"/>
</g>
<defs>
<clipPath id="clip0_81_65">
<rect width="2173" height="809" fill="white"/>
</clipPath>
</defs>
</svg>
